<svg width="70" height="70" viewBox="0 0 70 70" fill="none" xmlns="http://www.w3.org/2000/svg">
<rect width="70" height="70" rx="5" fill="#6995BB"/>
<g clip-path="url(#clip0_246_90)">
<path d="M22.5 47.5C22.5 44.8478 23.5536 42.3043 25.4289 40.4289C27.3043 38.5536 29.8478 37.5 32.5 37.5C35.1522 37.5 37.6957 38.5536 39.5711 40.4289C41.4464 42.3043 42.5 44.8478 42.5 47.5H40C40 45.5109 39.2098 43.6032 37.8033 42.1967C36.3968 40.7902 34.4891 40 32.5 40C30.5109 40 28.6032 40.7902 27.1967 42.1967C25.7902 43.6032 25 45.5109 25 47.5H22.5ZM32.5 36.25C28.3562 36.25 25 32.8938 25 28.75C25 24.6062 28.3562 21.25 32.5 21.25C36.6438 21.25 40 24.6062 40 28.75C40 32.8938 36.6438 36.25 32.5 36.25ZM32.5 33.75C35.2625 33.75 37.5 31.5125 37.5 28.75C37.5 25.9875 35.2625 23.75 32.5 23.75C29.7375 23.75 27.5 25.9875 27.5 28.75C27.5 31.5125 29.7375 33.75 32.5 33.75ZM42.855 38.3787C44.6117 39.1699 46.1025 40.4516 47.1482 42.0696C48.194 43.6877 48.7502 45.5734 48.75 47.5H46.25C46.2503 46.055 45.8332 44.6406 45.0489 43.427C44.2645 42.2133 43.1463 41.2521 41.8287 40.6588L42.8538 38.3787H42.855ZM41.995 24.2663C43.2544 24.7854 44.3312 25.6669 45.0888 26.799C45.8463 27.9312 46.2505 29.2628 46.25 30.625C46.2505 32.3404 45.6096 33.994 44.4532 35.261C43.2967 36.528 41.7083 37.3168 40 37.4725V34.9563C40.9262 34.8236 41.7854 34.3975 42.4516 33.7406C43.1178 33.0836 43.5559 32.2304 43.7014 31.3062C43.847 30.3819 43.6925 29.4354 43.2605 28.6054C42.8285 27.7755 42.1418 27.1059 41.3013 26.695L41.995 24.2663Z" fill="white"/>
</g>
<defs>
<clipPath id="clip0_246_90">
<rect width="30" height="30" fill="white" transform="translate(20 20)"/>
</clipPath>
</defs>
</svg>
