<svg width="71" height="70" viewBox="0 0 71 70" fill="none" xmlns="http://www.w3.org/2000/svg">
<rect x="0.0098877" width="70" height="70" rx="5" fill="#6995BB"/>
<g clip-path="url(#clip0_410_52)">
<g clip-path="url(#clip1_410_52)">
<path d="M35.0001 46.125L41.1876 39.9375C42.4112 38.7138 43.2445 37.1547 43.5821 35.4574C43.9196 33.7601 43.7463 32.0008 43.084 30.402C42.4217 28.8032 41.3002 27.4367 39.8613 26.4752C38.4224 25.5138 36.7307 25.0007 35.0001 25.0007C33.2696 25.0007 31.5779 25.5138 30.139 26.4752C28.7001 27.4367 27.5786 28.8032 26.9163 30.402C26.254 32.0008 26.0806 33.7601 26.4182 35.4574C26.7557 37.1547 27.589 38.7138 28.8126 39.9375L35.0001 46.125ZM35.0001 49.66L27.0451 41.705C25.4718 40.1317 24.4004 38.1271 23.9663 35.9448C23.5322 33.7626 23.755 31.5006 24.6065 29.4449C25.458 27.3892 26.8999 25.6322 28.75 24.3961C30.6 23.1599 32.7751 22.5001 35.0001 22.5001C37.2252 22.5001 39.4002 23.1599 41.2503 24.3961C43.1003 25.6322 44.5423 27.3892 45.3938 29.4449C46.2452 31.5006 46.468 33.7626 46.034 35.9448C45.5999 38.1271 44.5285 40.1317 42.9551 41.705L35.0001 49.66ZM35.0001 36.25C35.6632 36.25 36.2991 35.9866 36.7679 35.5178C37.2367 35.049 37.5001 34.4131 37.5001 33.75C37.5001 33.087 37.2367 32.4511 36.7679 31.9823C36.2991 31.5134 35.6632 31.25 35.0001 31.25C34.3371 31.25 33.7012 31.5134 33.2324 31.9823C32.7635 32.4511 32.5001 33.087 32.5001 33.75C32.5001 34.4131 32.7635 35.049 33.2324 35.5178C33.7012 35.9866 34.3371 36.25 35.0001 36.25ZM35.0001 38.75C33.674 38.75 32.4023 38.2232 31.4646 37.2856C30.5269 36.3479 30.0001 35.0761 30.0001 33.75C30.0001 32.4239 30.5269 31.1522 31.4646 30.2145C32.4023 29.2768 33.674 28.75 35.0001 28.75C36.3262 28.75 37.598 29.2768 38.5357 30.2145C39.4733 31.1522 40.0001 32.4239 40.0001 33.75C40.0001 35.0761 39.4733 36.3479 38.5357 37.2856C37.598 38.2232 36.3262 38.75 35.0001 38.75Z" fill="white"/>
</g>
</g>
<defs>
<clipPath id="clip0_410_52">
<rect width="30" height="30" fill="white" transform="translate(20.0099 20)"/>
</clipPath>
<clipPath id="clip1_410_52">
<rect width="30" height="30" fill="white" transform="translate(20.0001 20)"/>
</clipPath>
</defs>
</svg>
