<svg width="70" height="70" viewBox="0 0 70 70" fill="none" xmlns="http://www.w3.org/2000/svg">
<rect width="70" height="70" rx="5" fill="#6995BB"/>
<g clip-path="url(#clip0_1_172)">
<path d="M23.75 32.5H22.5V25.0038C22.5 24.3113 23.0688 23.75 23.74 23.75H46.26C46.4241 23.7497 46.5866 23.782 46.7381 23.845C46.8896 23.9081 47.0271 24.0006 47.1425 24.1173C47.2579 24.234 47.3489 24.3724 47.4103 24.5246C47.4717 24.6768 47.5022 24.8397 47.5 25.0038V32.5H46.25V45.0013C46.2505 45.1647 46.2188 45.3267 46.1567 45.478C46.0946 45.6292 46.0033 45.7667 45.888 45.8827C45.7727 45.9987 45.6358 46.0908 45.4849 46.1538C45.334 46.2168 45.1722 46.2495 45.0087 46.25H24.9913C24.8278 46.2495 24.666 46.2168 24.5151 46.1538C24.3642 46.0908 24.2273 45.9987 24.112 45.8827C23.9967 45.7667 23.9054 45.6292 23.8433 45.478C23.7812 45.3267 23.7495 45.1647 23.75 45.0013V32.5ZM43.75 32.5H26.25V43.75H43.75V32.5ZM25 26.25V30H45V26.25H25ZM31.25 35H38.75V37.5H31.25V35Z" fill="white"/>
</g>
<defs>
<clipPath id="clip0_1_172">
<rect width="30" height="30" fill="white" transform="translate(20 20)"/>
</clipPath>
</defs>
</svg>
