<svg width="70" height="70" viewBox="0 0 70 70" fill="none" xmlns="http://www.w3.org/2000/svg">
<rect width="70" height="70" rx="5" fill="#6995BB"/>
<g clip-path="url(#clip0_410_23)">
<path d="M40 22.5V25H38.75V29.0538C38.75 30.5013 39.0637 31.93 39.67 33.2438L45.0225 44.8388C45.4562 45.78 45.045 46.8938 44.105 47.3263C43.8587 47.4413 43.5912 47.5 43.32 47.5H26.68C25.645 47.5 24.805 46.66 24.805 45.625C24.805 45.3538 24.8637 45.085 24.9775 44.8388L30.33 33.2438C30.9362 31.9313 31.25 30.5013 31.25 29.0538V25H30V22.5H40ZM36.735 32.5013H33.265C33.135 32.955 32.9775 33.4025 32.7975 33.84L32.6 34.2912L27.6562 45H42.3425L37.4 34.2912C37.1325 33.7112 36.91 33.1125 36.735 32.5013V32.5013ZM33.75 29.0538C33.75 29.37 33.7375 29.6863 33.7137 30.0013H36.2862C36.2737 29.85 36.2662 29.6988 36.26 29.5463L36.25 29.0538V25H33.75V29.0538Z" fill="white"/>
</g>
<defs>
<clipPath id="clip0_410_23">
<rect width="30" height="30" fill="white" transform="translate(20 20)"/>
</clipPath>
</defs>
</svg>
