<svg width="54" height="55" viewBox="0 0 54 55" fill="none" xmlns="http://www.w3.org/2000/svg">
<circle cx="26.6341" cy="27.5" r="26.6341" fill="#F4F3FF"/>
<g opacity="0.01">
<rect x="16.8" y="37.3342" width="19.6683" height="19.6683" transform="rotate(-90 16.8 37.3342)" fill="#3A4856"/>
<rect x="16.8" y="37.3342" width="19.6683" height="19.6683" transform="rotate(-90 16.8 37.3342)" fill="url(#paint0_linear_346_117)" fill-opacity="0.2"/>
</g>
<path d="M20.8976 28.3195H30.617L27.6421 31.8926C27.3525 32.2411 27.4002 32.7584 27.7487 33.0481C28.0972 33.3378 28.6145 33.2901 28.9042 32.9416L33.0017 28.0245C33.0293 27.9854 33.0539 27.9443 33.0755 27.9016C33.0755 27.8606 33.0755 27.836 33.1329 27.795C33.17 27.7011 33.1894 27.6011 33.1902 27.5C33.1894 27.399 33.17 27.299 33.1329 27.205C33.1329 27.164 33.1329 27.1394 33.0755 27.0985C33.0539 27.0557 33.0293 27.0146 33.0017 26.9755L28.9042 22.0585C28.7482 21.8712 28.5169 21.7631 28.2731 21.7634C28.0817 21.7631 27.8961 21.8298 27.7487 21.9519C27.5811 22.0909 27.4756 22.2908 27.4557 22.5076C27.4357 22.7244 27.5028 22.9402 27.6421 23.1074L30.617 26.6805H20.8976C20.4449 26.6805 20.078 27.0474 20.078 27.5C20.078 27.9526 20.4449 28.3195 20.8976 28.3195Z" fill="#3A4856"/>
<path d="M20.8976 28.3195H30.617L27.6421 31.8926C27.3525 32.2411 27.4002 32.7584 27.7487 33.0481C28.0972 33.3378 28.6145 33.2901 28.9042 32.9416L33.0017 28.0245C33.0293 27.9854 33.0539 27.9443 33.0755 27.9016C33.0755 27.8606 33.0755 27.836 33.1329 27.795C33.17 27.7011 33.1894 27.6011 33.1902 27.5C33.1894 27.399 33.17 27.299 33.1329 27.205C33.1329 27.164 33.1329 27.1394 33.0755 27.0985C33.0539 27.0557 33.0293 27.0146 33.0017 26.9755L28.9042 22.0585C28.7482 21.8712 28.5169 21.7631 28.2731 21.7634C28.0817 21.7631 27.8961 21.8298 27.7487 21.9519C27.5811 22.0909 27.4756 22.2908 27.4557 22.5076C27.4357 22.7244 27.5028 22.9402 27.6421 23.1074L30.617 26.6805H20.8976C20.4449 26.6805 20.078 27.0474 20.078 27.5C20.078 27.9526 20.4449 28.3195 20.8976 28.3195Z" fill="url(#paint1_linear_346_117)" fill-opacity="0.2"/>
<defs>
<linearGradient id="paint0_linear_346_117" x1="16.8" y1="57.0024" x2="38.0792" y2="55.0695" gradientUnits="userSpaceOnUse">
<stop stop-color="#486A6F"/>
<stop offset="1" stop-color="#4397A4"/>
</linearGradient>
<linearGradient id="paint1_linear_346_117" x1="33.1902" y1="21.7634" x2="19.0395" y2="23.2323" gradientUnits="userSpaceOnUse">
<stop stop-color="#486A6F"/>
<stop offset="1" stop-color="#4397A4"/>
</linearGradient>
</defs>
</svg>
