<svg width="70" height="70" viewBox="0 0 70 70" fill="none" xmlns="http://www.w3.org/2000/svg">
<rect width="70" height="70" rx="5" fill="#6995BB"/>
<g clip-path="url(#clip0_246_79)">
<path d="M40 40C42.0712 40 43.75 41.6788 43.75 43.75C43.75 45.8212 42.0712 47.5 40 47.5C37.9288 47.5 36.25 45.8212 36.25 43.75C36.25 41.6788 37.9288 40 40 40ZM27.5 35C30.2625 35 32.5 37.2375 32.5 40C32.5 42.7625 30.2625 45 27.5 45C24.7375 45 22.5 42.7625 22.5 40C22.5 37.2375 24.7375 35 27.5 35ZM40 42.5C39.31 42.5 38.75 43.06 38.75 43.75C38.75 44.44 39.31 45 40 45C40.69 45 41.25 44.44 41.25 43.75C41.25 43.06 40.69 42.5 40 42.5ZM27.5 37.5C26.1188 37.5 25 38.6187 25 40C25 41.3813 26.1188 42.5 27.5 42.5C28.8812 42.5 30 41.3813 30 40C30 38.6187 28.8812 37.5 27.5 37.5ZM38.125 22.5C41.9225 22.5 45 25.5775 45 29.375C45 33.1725 41.9225 36.25 38.125 36.25C34.3275 36.25 31.25 33.1725 31.25 29.375C31.25 25.5775 34.3275 22.5 38.125 22.5ZM38.125 25C35.7087 25 33.75 26.9588 33.75 29.375C33.75 31.7913 35.7087 33.75 38.125 33.75C40.5413 33.75 42.5 31.7913 42.5 29.375C42.5 26.9588 40.5413 25 38.125 25Z" fill="white"/>
</g>
<defs>
<clipPath id="clip0_246_79">
<rect width="30" height="30" fill="white" transform="translate(20 20)"/>
</clipPath>
</defs>
</svg>
