<svg width="54" height="55" viewBox="0 0 54 55" fill="none" xmlns="http://www.w3.org/2000/svg">
<circle cx="26.6341" cy="26.6341" r="26.6341" transform="matrix(-1 0 0 1 54 0.865891)" fill="#F4F3FF"/>
<g opacity="0.01">
<rect width="19.6683" height="19.6683" transform="matrix(0 -1 -1 0 37.2 37.3342)" fill="#3A4856"/>
<rect width="19.6683" height="19.6683" transform="matrix(0 -1 -1 0 37.2 37.3342)" fill="url(#paint0_linear_346_123)" fill-opacity="0.2"/>
</g>
<path d="M33.1024 28.3195H23.383L26.3578 31.8926C26.6475 32.2411 26.5998 32.7584 26.2513 33.0481C25.9028 33.3378 25.3855 33.2901 25.0958 32.9416L20.9982 28.0245C20.9707 27.9854 20.946 27.9443 20.9245 27.9016C20.9245 27.8606 20.9245 27.836 20.8671 27.795C20.83 27.7011 20.8105 27.6011 20.8098 27.5C20.8105 27.399 20.83 27.299 20.8671 27.205C20.8671 27.164 20.8671 27.1394 20.9245 27.0985C20.946 27.0557 20.9707 27.0146 20.9982 26.9755L25.0958 22.0585C25.2518 21.8712 25.4831 21.7631 25.7268 21.7634C25.9183 21.7631 26.1039 21.8298 26.2513 21.9519C26.4189 22.0909 26.5243 22.2908 26.5443 22.5076C26.5643 22.7244 26.4972 22.9402 26.3578 23.1074L23.383 26.6805H33.1024C33.555 26.6805 33.9219 27.0474 33.9219 27.5C33.9219 27.9526 33.555 28.3195 33.1024 28.3195Z" fill="#3A4856"/>
<path d="M33.1024 28.3195H23.383L26.3578 31.8926C26.6475 32.2411 26.5998 32.7584 26.2513 33.0481C25.9028 33.3378 25.3855 33.2901 25.0958 32.9416L20.9982 28.0245C20.9707 27.9854 20.946 27.9443 20.9245 27.9016C20.9245 27.8606 20.9245 27.836 20.8671 27.795C20.83 27.7011 20.8105 27.6011 20.8098 27.5C20.8105 27.399 20.83 27.299 20.8671 27.205C20.8671 27.164 20.8671 27.1394 20.9245 27.0985C20.946 27.0557 20.9707 27.0146 20.9982 26.9755L25.0958 22.0585C25.2518 21.8712 25.4831 21.7631 25.7268 21.7634C25.9183 21.7631 26.1039 21.8298 26.2513 21.9519C26.4189 22.0909 26.5243 22.2908 26.5443 22.5076C26.5643 22.7244 26.4972 22.9402 26.3578 23.1074L23.383 26.6805H33.1024C33.555 26.6805 33.9219 27.0474 33.9219 27.5C33.9219 27.9526 33.555 28.3195 33.1024 28.3195Z" fill="url(#paint1_linear_346_123)" fill-opacity="0.2"/>
<defs>
<linearGradient id="paint0_linear_346_123" x1="1.4654e-07" y1="19.6683" x2="21.2793" y2="17.7354" gradientUnits="userSpaceOnUse">
<stop stop-color="#486A6F"/>
<stop offset="1" stop-color="#4397A4"/>
</linearGradient>
<linearGradient id="paint1_linear_346_123" x1="20.8098" y1="21.7634" x2="34.9605" y2="23.2323" gradientUnits="userSpaceOnUse">
<stop stop-color="#486A6F"/>
<stop offset="1" stop-color="#4397A4"/>
</linearGradient>
</defs>
</svg>
