<svg width="71" height="70" viewBox="0 0 71 70" fill="none" xmlns="http://www.w3.org/2000/svg">
<rect x="0.43457" width="70" height="70" rx="5" fill="#6995BB"/>
<g clip-path="url(#clip0_410_39)">
<path d="M39.247 26.25C40.468 26.4882 41.59 27.0853 42.4696 27.9649C43.3492 28.8445 43.9463 29.9666 44.1845 31.1875L39.247 26.25ZM39.247 21.25C41.7836 21.5318 44.149 22.6677 45.9549 24.4713C47.7607 26.2748 48.8996 28.6388 49.1846 31.175L39.247 21.25ZM47.9346 41.15V44.9C47.936 45.2481 47.8647 45.5927 47.7252 45.9117C47.5857 46.2307 47.3812 46.517 47.1246 46.7523C46.8681 46.9877 46.5653 47.1669 46.2355 47.2784C45.9057 47.3899 45.5563 47.4313 45.2095 47.4C41.3631 46.9821 37.6683 45.6677 34.422 43.5625C31.4018 41.6433 28.8412 39.0827 26.922 36.0625C24.8095 32.8015 23.4949 29.0887 23.0845 25.225C23.0533 24.8793 23.0944 24.531 23.2052 24.202C23.316 23.8731 23.494 23.5709 23.728 23.3145C23.962 23.0582 24.2468 22.8534 24.5643 22.7132C24.8818 22.5729 25.225 22.5003 25.572 22.5H29.322C29.9287 22.494 30.5168 22.7088 30.9768 23.1044C31.4367 23.5 31.7371 24.0493 31.822 24.65C31.9803 25.8501 32.2739 27.0284 32.697 28.1625C32.8652 28.6099 32.9016 29.0961 32.8019 29.5636C32.7022 30.0311 32.4706 30.4601 32.1345 30.8L30.547 32.3875C32.3265 35.5169 34.9176 38.1081 38.047 39.8875L39.6345 38.3C39.9744 37.9639 40.4035 37.7323 40.8709 37.6326C41.3384 37.5329 41.8246 37.5693 42.272 37.7375C43.4061 38.1607 44.5845 38.4542 45.7846 38.6125C46.3918 38.6982 46.9463 39.004 47.3427 39.4719C47.7391 39.9397 47.9498 40.537 47.9346 41.15Z" stroke="white" stroke-width="2" stroke-linecap="round" stroke-linejoin="round"/>
</g>
<defs>
<clipPath id="clip0_410_39">
<rect width="30" height="30" fill="white" transform="translate(20.4346 20)"/>
</clipPath>
</defs>
</svg>
